<?xml version="1.0" ?><!DOCTYPE svg  PUBLIC '-//W3C//DTD SVG 1.1//EN'  'http://www.w3.org/Graphics/SVG/1.1/DTD/svg11.dtd'><svg enable-background="new 0 0 24 24" height="24px" id="Layer_1" version="1.1" viewBox="0 0 24 24" width="24px" xml:space="preserve" xmlns="http://www.w3.org/2000/svg" xmlns:xlink="http://www.w3.org/1999/xlink"><path d="M19.7,0.5H4.3c-2.1,0-3.8,1.7-3.8,3.8v15.4c0,2.1,1.7,3.8,3.8,3.8h15.4c2.1,0,3.8-1.7,3.8-3.8V4.3  C23.5,2.2,21.8,0.5,19.7,0.5z M17,7.4c0,0.3-0.2,0.5-0.5,0.5S16,7.7,16,7.4V6.1H9.9v5.4h3.3v-0.8c0-0.3,0.2-0.5,0.5-0.5  s0.5,0.2,0.5,0.5v2.5c0,0.3-0.2,0.5-0.5,0.5s-0.5-0.2-0.5-0.5v-0.8H9.9v5.4H16v-1.3c0-0.3,0.2-0.5,0.5-0.5s0.5,0.2,0.5,0.5v1.8  c0,0.3-0.2,0.5-0.5,0.5h-9c-0.3,0-0.5-0.2-0.5-0.5c0-0.3,0.2-0.5,0.5-0.5h1.4V6.1H7.5C7.2,6.1,7,5.9,7,5.6c0-0.3,0.2-0.5,0.5-0.5h9  c0.3,0,0.5,0.2,0.5,0.5V7.4z"/></svg>